<?xml version="1.0" encoding="iso-8859-1"?>
<!-- Generator: Adobe Illustrator 18.0.0, SVG Export Plug-In . SVG Version: 6.00 Build 0)  -->
<!DOCTYPE svg PUBLIC "-//W3C//DTD SVG 1.1//EN" "http://www.w3.org/Graphics/SVG/1.1/DTD/svg11.dtd">
<svg version="1.1" id="Capa_1" xmlns="http://www.w3.org/2000/svg" xmlns:xlink="http://www.w3.org/1999/xlink" x="0px" y="0px"
	 viewBox="0 0 314.652 314.652" style="enable-background:new 0 0 314.652 314.652;" xml:space="preserve">
<g>
	<path d="M157.326,0C70.576,0,0,70.576,0,157.326s70.576,157.326,157.326,157.326s157.326-70.576,157.326-157.326
		S244.076,0,157.326,0z M157.326,296.652C80.501,296.652,18,234.15,18,157.326S80.501,18,157.326,18s139.326,62.502,139.326,139.326
		S234.151,296.652,157.326,296.652z"/>
	<path d="M225.66,148.326h-61.584c-4.971,0-9,4.029-9,9s4.029,9,9,9h51.903c-4.35,28.461-28.995,50.333-58.652,50.333
		c-32.717,0-59.333-26.616-59.333-59.333s26.617-59.333,59.333-59.333c14.969,0,29.263,5.59,40.249,15.738
		c3.653,3.374,9.346,3.148,12.718-0.503c3.373-3.651,3.147-9.346-0.503-12.718c-14.322-13.231-32.954-20.518-52.464-20.518
		c-42.642,0-77.333,34.691-77.333,77.333s34.691,77.333,77.333,77.333s77.333-34.691,77.333-77.333
		C234.66,152.355,230.63,148.326,225.66,148.326z"/>
</g>
<g>
</g>
<g>
</g>
<g>
</g>
<g>
</g>
<g>
</g>
<g>
</g>
<g>
</g>
<g>
</g>
<g>
</g>
<g>
</g>
<g>
</g>
<g>
</g>
<g>
</g>
<g>
</g>
<g>
</g>
</svg>
